<svg width="174" height="60" viewBox="0 0 174 60" fill="none" xmlns="http://www.w3.org/2000/svg">
<path d="M11.725 24.8419C12.9921 25.9087 13.8342 27.4001 14.0964 29.042H9.32865C9.21667 28.41 8.88334 27.8393 8.38916 27.4336C7.86289 27.0326 7.21533 26.8265 6.55571 26.8503C6.08832 26.8173 5.62419 26.9499 5.24374 27.2253C5.09295 27.3566 4.9742 27.5212 4.89669 27.7061C4.81918 27.8911 4.78499 28.0916 4.79676 28.292C4.79918 28.5484 4.8799 28.798 5.02798 29.0067C5.17605 29.2154 5.38431 29.3732 5.6245 29.4587C6.45486 29.8086 7.31893 30.0711 8.20292 30.242C9.26377 30.4801 10.3088 30.7849 11.3318 31.1545C12.1532 31.4712 12.881 31.9931 13.4467 32.6712C14.0766 33.473 14.3918 34.4799 14.3323 35.5005C14.3476 36.4113 14.0767 37.3038 13.5584 38.0505C12.9895 38.8287 12.2152 39.4307 11.3235 39.7881C10.224 40.2293 9.04676 40.4405 7.86354 40.4089C5.61485 40.4089 3.82141 39.9089 2.48322 38.9089C1.80338 38.3999 1.2329 37.7576 0.806135 37.0207C0.37937 36.2839 0.105154 35.4677 0 34.6213H4.91678C4.9359 34.9498 5.02755 35.2698 5.18506 35.5582C5.34257 35.8465 5.56198 36.0958 5.8273 36.288C6.43106 36.6842 7.14374 36.8781 7.86354 36.8422C8.33722 36.8732 8.80526 36.7245 9.17552 36.4255C9.32292 36.2923 9.43939 36.128 9.51664 35.9444C9.59389 35.7608 9.63003 35.5622 9.6225 35.363C9.63248 35.0935 9.55788 34.8277 9.40929 34.6033C9.26071 34.3789 9.04568 34.2073 8.79475 34.1129C7.9314 33.7648 7.03772 33.4983 6.12529 33.3171C5.09357 33.1155 4.07817 32.8369 3.08748 32.4837C2.28542 32.1833 1.57305 31.6812 1.01812 31.0254C0.416729 30.2477 0.11798 29.2757 0.177964 28.292C0.162296 27.5962 0.307866 26.9064 0.603127 26.2771C0.898389 25.6479 1.33522 25.0966 1.87897 24.6669C3.00746 23.7391 4.60638 23.2738 6.67574 23.271C8.74509 23.2682 10.4282 23.7919 11.725 24.8419Z" fill="white"/>
<path d="M34.0906 23.4586V40.2006H28.971V37.1672C28.5017 38.1386 27.7609 38.951 26.8396 39.5048C25.8458 40.1003 24.7055 40.4021 23.5493 40.3756C21.6428 40.3756 20.1252 39.7353 18.9967 38.4547C17.8683 37.1742 17.3068 35.4158 17.3123 33.1796V23.4586H22.3781V32.5504C22.3176 33.517 22.6339 34.4691 23.2596 35.2047C23.5647 35.5228 23.9337 35.7717 24.3419 35.9348C24.7501 36.0979 25.1882 36.1715 25.627 36.1505C26.0811 36.1741 26.5349 36.0976 26.9567 35.9263C27.3784 35.755 27.758 35.4931 28.0688 35.1588C28.6648 34.5005 28.971 33.5588 28.971 32.3421V23.4586H34.0906Z" fill="white"/>
<path d="M52.3091 24.2835C53.4239 25.0124 54.3129 26.0418 54.8751 27.2544C55.5306 28.6903 55.8506 30.2582 55.8105 31.8379C55.8498 33.4175 55.5299 34.9853 54.8751 36.4213C54.3168 37.6398 53.4271 38.6742 52.3091 39.4047C51.2079 40.1006 49.9297 40.4596 48.6298 40.4381C47.4773 40.4706 46.3398 40.1698 45.3519 39.5714C44.4514 39.0023 43.7531 38.1606 43.3571 37.1672V40.1964H38.2623V18.0001H43.3571V26.4919C43.7578 25.5101 44.4558 24.6804 45.3519 24.121C46.3394 23.5212 47.4769 23.2189 48.6298 23.2502C49.9295 23.2306 51.2072 23.5894 52.3091 24.2835V24.2835ZM44.3545 28.8337C43.6369 29.6541 43.2683 30.7255 43.3281 31.8171C43.2716 32.9043 43.64 33.9707 44.3545 34.788C44.6986 35.1389 45.108 35.418 45.5593 35.6094C46.0107 35.8008 46.4951 35.9008 46.9849 35.9035C47.4746 35.9062 47.9601 35.8116 48.4135 35.6252C48.8669 35.4388 49.2793 35.1642 49.6272 34.8171C50.3338 33.9851 50.6928 32.9098 50.6288 31.8171C50.6928 30.7243 50.3338 29.649 49.6272 28.817C49.2904 28.4572 48.8806 28.1747 48.4257 27.9884C47.9708 27.8022 47.4815 27.7167 46.9909 27.7378C46.4994 27.7221 46.0103 27.8117 45.5558 28.0006C45.1013 28.1895 44.6918 28.4735 44.3545 28.8337V28.8337Z" fill="white"/>
<path d="M69.7413 24.8419C71.0084 25.9087 71.8505 27.4001 72.1128 29.042H67.345C67.2348 28.4093 66.9011 27.8381 66.4055 27.4336C65.8793 27.0326 65.2317 26.8265 64.5721 26.8503C64.1047 26.8173 63.6406 26.9499 63.2601 27.2253C63.1093 27.3566 62.9906 27.5212 62.9131 27.7061C62.8355 27.8911 62.8014 28.0916 62.8131 28.292C62.8155 28.5484 62.8963 28.798 63.0443 29.0067C63.1924 29.2154 63.4007 29.3732 63.6409 29.4587C64.4712 29.8086 65.3353 30.0711 66.2193 30.242C67.2801 30.4801 68.3251 30.7849 69.3481 31.1545C70.1695 31.4712 70.8974 31.9931 71.463 32.6712C72.093 33.473 72.4082 34.4799 72.3487 35.5005C72.3639 36.4113 72.0931 37.3038 71.5748 38.0505C71.0058 38.8287 70.2316 39.4307 69.3399 39.7881C68.2425 40.2324 67.0665 40.4465 65.8841 40.4173C63.6409 40.4173 61.8474 39.9172 60.5037 38.9172C59.8239 38.4082 59.2534 37.7659 58.8266 37.0291C58.3999 36.2922 58.1257 35.476 58.0205 34.6296H62.9373C62.9573 34.9579 63.0493 35.2777 63.2067 35.5659C63.3642 35.8541 63.5831 36.1035 63.8478 36.2963C64.4508 36.6992 65.1652 36.8991 65.8882 36.8672C66.3619 36.8982 66.8299 36.7495 67.2002 36.4505C67.3476 36.3173 67.464 36.153 67.5413 35.9694C67.6185 35.7858 67.6547 35.5872 67.6471 35.388C67.6571 35.1185 67.5825 34.8527 67.4339 34.6283C67.2854 34.4039 67.0703 34.2323 66.8194 34.1379C65.9565 33.7855 65.0628 33.5149 64.1499 33.3296C63.1182 33.128 62.1028 32.8494 61.1121 32.4962C60.3101 32.1958 59.5977 31.6937 59.0428 31.0379C58.4306 30.2615 58.1228 29.2859 58.1778 28.2961C58.1634 27.5983 58.3112 26.9067 58.6094 26.2766C58.9076 25.6465 59.348 25.0953 59.8953 24.6669C61.0238 23.7391 62.6227 23.2738 64.6921 23.271C66.7615 23.2682 68.4445 23.7919 69.7413 24.8419Z" fill="white"/>
<path d="M85.0132 35.7922V40.2006H82.7203C80.7752 40.2006 79.2562 39.7173 78.1678 38.7464C77.0793 37.7755 76.5661 36.1713 76.5661 33.9296V27.7795H74.3353V23.4585H76.5661V19.3501H81.665V23.4585H85.0008V27.7795H81.665V34.0296C81.6402 34.2756 81.6641 34.5241 81.7351 34.7608C81.8061 34.9975 81.9229 35.2178 82.0789 35.4088C82.4661 35.7071 82.951 35.847 83.4363 35.8005L85.0132 35.7922Z" fill="white"/>
<path d="M96.3821 24.1794C97.3668 23.5841 98.4949 23.2728 99.6434 23.2793V28.7711H98.1866C96.8332 28.7711 95.7861 29.0586 95.0412 29.642C94.2962 30.2253 93.9237 31.2004 93.9237 32.5796V40.2006H88.829V23.4585H93.9237V26.6086C94.5386 25.6127 95.3816 24.7797 96.3821 24.1794V24.1794Z" fill="white"/>
<path d="M111.447 24.121C112.346 24.6851 113.052 25.5123 113.471 26.4919V23.4585H118.537V40.2006H113.471V37.1672C113.051 38.146 112.345 38.973 111.447 39.5381C110.459 40.1365 109.322 40.4373 108.169 40.4047C106.868 40.4264 105.588 40.0674 104.486 39.3714C103.369 38.6411 102.48 37.6066 101.924 36.388C101.268 34.9523 100.946 33.3845 100.984 31.8045C100.946 30.2245 101.267 28.6566 101.924 27.2211C102.485 26.0087 103.372 24.9793 104.486 24.2502C105.589 23.5562 106.868 23.1974 108.169 23.2168C109.325 23.1956 110.463 23.5094 111.447 24.121V24.121ZM107.168 28.8336C106.464 29.6672 106.107 30.7417 106.17 31.8337C106.107 32.9257 106.464 34.0002 107.168 34.8338C107.873 35.5309 108.824 35.9191 109.812 35.9136C110.801 35.9081 111.747 35.5095 112.445 34.8046C113.157 33.986 113.525 32.9206 113.471 31.8337C113.535 30.7365 113.166 29.6582 112.445 28.8336C112.107 28.4735 111.698 28.1895 111.243 28.0006C110.789 27.8117 110.3 27.7221 109.808 27.7378C109.316 27.7193 108.825 27.8076 108.37 27.9967C107.914 28.1858 107.504 28.4712 107.168 28.8336V28.8336Z" fill="white"/>
<path d="M131.946 35.7922V40.2006H129.653C127.705 40.2006 126.188 39.7159 125.101 38.7464C124.014 37.7769 123.471 36.1713 123.474 33.9296V27.7795H121.264V23.4585H123.499V19.3501H128.598V23.4585H131.934V27.7795H128.598V34.0296C128.573 34.2756 128.597 34.5241 128.668 34.7608C128.739 34.9975 128.856 35.2178 129.012 35.4088C129.398 35.7064 129.881 35.8463 130.365 35.8005L131.946 35.7922Z" fill="white"/>
<path d="M150.748 32.7588H139.218C139.276 34.0227 139.593 34.9283 140.17 35.4755C140.465 35.7536 140.812 35.9703 141.19 36.1133C141.569 36.2563 141.972 36.3228 142.376 36.3088C143.048 36.3338 143.709 36.1329 144.255 35.738C144.743 35.3713 145.089 34.8456 145.236 34.2505H150.616C150.409 35.4091 149.918 36.4975 149.188 37.4172C148.437 38.3581 147.477 39.1088 146.386 39.6089C145.098 40.1694 143.703 40.4383 142.299 40.3966C140.896 40.3548 139.519 40.0034 138.266 39.3673C137.024 38.6818 136.006 37.6484 135.336 36.3922C134.591 34.9833 134.22 33.4044 134.26 31.8087C134.22 30.2151 134.585 28.6376 135.319 27.2253C135.997 25.9641 137.027 24.931 138.283 24.2544C139.634 23.5808 141.121 23.2304 142.628 23.2304C144.136 23.2304 145.623 23.5808 146.974 24.2544C148.193 24.9078 149.199 25.9018 149.871 27.117C150.572 28.4192 150.926 29.8821 150.897 31.3629C150.894 31.832 150.844 32.2996 150.748 32.7588V32.7588ZM144.855 28.1253C144.24 27.5677 143.435 27.2694 142.608 27.292C141.754 27.2575 140.921 27.556 140.282 28.1253C139.625 28.7738 139.25 29.6577 139.239 30.5837H145.736C145.761 29.5004 145.472 28.6753 144.855 28.1253Z" fill="white"/>
<path d="M173.722 37.2047V42.2048H155.28V37.2047H173.722Z" fill="white"/>
</svg>
